<?xml version="1.0" encoding="utf-8"?>
<!-- Generator: Adobe Illustrator 16.0.0, SVG Export Plug-In . SVG Version: 6.00 Build 0)  -->
<!DOCTYPE svg PUBLIC "-//W3C//DTD SVG 1.1//EN" "http://www.w3.org/Graphics/SVG/1.1/DTD/svg11.dtd">
<svg version="1.1" id="Layer_1" xmlns="http://www.w3.org/2000/svg" xmlns:xlink="http://www.w3.org/1999/xlink" x="0px" y="0px"
	 width="804px" height="265px" viewBox="0 0 804 265" enable-background="new 0 0 804 265" xml:space="preserve">
<rect y="19" opacity="0.6" fill="#42F4A3" enable-background="new    " width="804" height="246"/>
<rect y="0" fill="#41E596" width="804" height="19"/>
<rect x="46" y="81" fill="#41E596" width="99" height="162"/>
<rect x="150" y="81" fill="#41E596" width="99" height="162"/>
<rect x="46" y="40" fill="#41E596" width="99" height="34"/>
<rect x="150" y="40" fill="#41E596" width="99" height="34"/>
<g>
	<rect x="299" y="81" fill="#41E596" width="99" height="162"/>
	<rect x="403" y="81" fill="#41E596" width="99" height="162"/>
	<rect x="299" y="40" fill="#41E596" width="99" height="34"/>
	<rect x="403" y="40" fill="#41E596" width="99" height="34"/>
</g>
<g>
	<rect x="553" y="81" fill="#41E596" width="99" height="162"/>
	<rect x="657" y="81" fill="#41E596" width="99" height="162"/>
	<rect x="553" y="40" fill="#41E596" width="99" height="34"/>
	<rect x="657" y="40" fill="#41E596" width="99" height="34"/>
</g>
<circle fill="#FFFFFF" cx="100.5" cy="57" r="5"/>
<circle fill="#FFFFFF" cx="199.5" cy="57" r="5"/>
<circle fill="#FFFFFF" cx="458.5" cy="57" r="5"/>
</svg>
