<?xml version="1.0" encoding="utf-8"?>
<!-- Generator: Adobe Illustrator 16.0.0, SVG Export Plug-In . SVG Version: 6.00 Build 0)  -->
<!DOCTYPE svg PUBLIC "-//W3C//DTD SVG 1.1//EN" "http://www.w3.org/Graphics/SVG/1.1/DTD/svg11.dtd">
<svg version="1.1" id="Layer_1" xmlns="http://www.w3.org/2000/svg" xmlns:xlink="http://www.w3.org/1999/xlink" x="0px" y="0px"
	 width="765px" height="102.611px" viewBox="0 0 765 102.611" enable-background="new 0 0 765 102.611" xml:space="preserve">
<rect y="83.611" opacity="0.6" fill="#42F4A3" enable-background="new    " width="765" height="19"/>
<path fill="#41E596" d="M226.702,12.404c0,0-0.605,16.022-2.465,19.445c-5.569,4.048-5.007,8.122-5.535,13.238
	c-1,9.692-1,9.692,0.333,23.262c1.211,12.324,3,15.265,3,15.265h16.667c0,0,2.063-8.582,3-14.537c0.95-6.041-0.545-18.014-1-25.927
	c-0.563-9.804-3-10.968-5.667-11.299c-2.667-0.331-1.333-19.445-1.333-19.445L226.702,12.404L226.702,12.404z"/>
<path fill="#41E596" d="M156.396,10.454c0,0-23.932,18.029-28.929,38.51c-4.998,20.479,4.242,27.075,5.9,30.952
	c1.658,3.878,47.222,4.799,53.036,2.313c5.815-2.486,3.427-63.833,1.935-65.716c-1.494-1.884-7.358-8.089-7.358-8.089l-1.203-6.466
	L169.582,0l-1.171,10.13L156.396,10.454z"/>
<path fill="#FFFFFF" d="M156.087,23.858c0,0-15.935,16.7-16.605,24.783s6.553,15.514,10.36,12.523
	C153.647,58.174,156.087,23.858,156.087,23.858z"/>
<path fill="#41E596" d="M253.083,55.87c0,0,25.833,60.354,63.833,3.021C316.917,58.891,288.583,42.85,253.083,55.87z"/>
<path fill="#228252" d="M261.333,58.496c0,0,34,10.666,47.333,0C308.667,58.496,275.333,53.83,261.333,58.496z"/>
</svg>
